<?xml version="1.0" encoding="UTF-8"?>
<svg width="75px" height="68px" viewBox="0 0 75 68" version="1.1" xmlns="http://www.w3.org/2000/svg" xmlns:xlink="http://www.w3.org/1999/xlink">
    <!-- Generator: Sketch 3.7.2 (28276) - http://www.bohemiancoding.com/sketch -->
    <title>Slice 1</title>
    <desc>Created with Sketch.</desc>
    <defs></defs>
    <g id="Page-1" stroke="none" stroke-width="1" fill="none" fill-rule="evenodd">
        <path d="M28.135,33.599 C28.463,30.552 31.05,28.172 34.182,28.172 C37.536,28.172 40.264,30.9 40.264,34.254 C40.264,36.668 38.849,38.755 36.806,39.736 C36.776,39.75 36.596,39.877 36.585,40.096 C36.571,40.355 36.69,40.465 36.731,40.494 C37.606,41.127 42.198,44.403 44.054,45.726 C44.281,45.888 44.565,45.986 44.824,45.964 C45.115,45.94 45.375,45.779 45.487,45.668 C48.431,42.755 50.264,38.723 50.264,34.254 C50.264,25.372 43.064,18.172 34.182,18.172 C27.809,18.172 22.304,21.88 19.702,27.256 C19.645,27.374 19.532,27.741 19.601,27.995 C19.687,28.313 19.969,28.514 19.969,28.514 C19.969,28.514 26.274,33.014 27.443,33.854 C27.489,33.887 27.701,33.998 27.885,33.917 C28.074,33.833 28.131,33.64 28.135,33.599" id="Fill-16" fill="#275797"></path>
        <path d="M55.966,36.097 C55.028,47.291 45.616,56.114 34.183,56.114 C34.142,56.114 34.101,56.111 34.06,56.111 C22.461,56.047 12.972,46.906 12.354,35.443 C12.351,35.385 12.319,34.883 12.016,34.6 C11.714,34.317 11.336,34.254 11.04,34.254 L2.301,34.254 C1.771,34.254 1.406,34.332 1.108,34.611 C0.791,34.907 0.796,35.486 0.812,35.795 C0.817,35.91 0.837,36.19 0.844,36.305 C1.905,53.73 16.388,67.587 34.06,67.651 C34.101,67.652 34.142,67.655 34.183,67.655 C49.328,67.655 62.142,57.519 66.22,43.677 C66.265,43.527 66.41,43.032 66.309,42.575 C66.235,42.239 65.959,41.924 65.761,41.781 C63.81,40.369 58.623,36.617 57.218,35.609 C57.054,35.491 56.749,35.351 56.392,35.492 C56.022,35.637 55.972,36.031 55.966,36.097" id="Fill-17" fill="#171D1A"></path>
        <path d="M12.399,32.411 C13.338,21.216 22.749,12.393 34.183,12.393 C34.224,12.393 34.264,12.396 34.305,12.396 C45.904,12.461 55.394,21.602 56.011,33.064 C56.014,33.123 56.047,33.625 56.349,33.907 C56.651,34.19 57.029,34.254 57.326,34.254 L66.064,34.254 C66.595,34.254 66.959,34.176 67.258,33.896 C67.574,33.6 67.569,33.021 67.554,32.713 C67.548,32.598 67.528,32.317 67.521,32.202 C66.46,14.777 51.977,0.92 34.305,0.856 C34.264,0.856 34.224,0.853 34.183,0.853 C19.037,0.853 6.223,10.988 2.145,24.83 C2.101,24.981 1.956,25.476 2.056,25.933 C2.131,26.269 2.406,26.583 2.604,26.727 C4.555,28.138 9.742,31.89 11.148,32.899 C11.311,33.016 11.616,33.157 11.973,33.016 C12.343,32.87 12.393,32.476 12.399,32.411" id="Fill-18" fill="#00B3D6"></path>
        <polyline id="Fill-19" fill="#171D1A" points="66.588 62.02 65.069 62.02 65.069 61.25 68.989 61.25 68.989 62.02 67.47 62.02 67.47 66.206 66.588 66.206 66.588 62.02"></polyline>
        <polyline id="Fill-20" fill="#171D1A" points="69.563 61.25 70.943 61.25 72.231 64.771 72.252 64.771 73.526 61.25 74.912 61.25 74.912 66.206 74.037 66.206 74.037 62.223 74.023 62.223 72.518 66.206 71.902 66.206 70.418 62.223 70.403 62.223 70.403 66.206 69.563 66.206 69.563 61.25"></polyline>
    </g>
</svg>